# xmcd CD database file
#
# Track frame offsets:
#	150
#	15534
#	31378
#	47580
#	62654
#	78439
#	94729
#	107004
#	122486
#	134826
#	152058
#	165892
#	180887
#	197347
#	209912
#	225232
#	241082
#	255129
#	273165
#
# Disc length: 3836 seconds
#
# Revision: 1
# Processed by: cddbd v1.5.2PL0 Copyright (c) Steve Scherf et al.
# Submitted via: CDex 1.81
#
DISCID=e30efa13
DTITLE=Various Artist - MNM Big Hits 2018.3  CD 1
DYEAR=2018
DGENRE=Top 40
TTITLE0=Ariana Grande - No Tears Left To Cry
TTITLE1=Rudimental feat. Jess Glynne, Macklemore and Dan Caplen - These Days
TTITLE2=Dua Lipa - IDGAF
TTITLE3=Daddy Yankee - Dura
TTITLE4=Shawn Mendes - In My Blood
TTITLE5=Kygo and Miguel - Remind Me To Forget
TTITLE6=Regi feat. Jake Reese - Ellie
TTITLE7=Emma Bale - Cut Loose
TTITLE8=Bebe Rexha feat. Florida Georgia Line - Meant To Be
TTITLE9=Post Malone - Better Now
TTITLE10=Dimitri Vegas and Like Mike and Gucci Mane - All I Need
TTITLE11=Sean Paul and David Guetta feat. Becky G - Mad Love
TTITLE12=Coely - Hush
TTITLE13=Noah Kahan and Julia Michaels - Hurt Somebody
TTITLE14=Sigala and Paloma Faith - Lullaby
TTITLE15=Warhola - Promise
TTITLE16=Years and Years - If You're Over Me
TTITLE17=P!nk - Whatever You Want
TTITLE18=Hooverphonic - Romantic
EXTD=YEAR: 2018
EXTT0=
EXTT1=
EXTT2=
EXTT3=
EXTT4=
EXTT5=
EXTT6=
EXTT7=
EXTT8=
EXTT9=
EXTT10=
EXTT11=
EXTT12=
EXTT13=
EXTT14=
EXTT15=
EXTT16=
EXTT17=
EXTT18=
PLAYORDER=
